# xmcd CD database file
#
# Track frame offsets:
#	150
#	13481
#	24316
#	39708
#	52905
#	68773
#	90547
#	107017
#	122432
#	139954
#	159338
#
# Disc length: 2293 seconds
#
# Revision: 0
# Processed by: cddbd v1.5.2PL0 Copyright (c) Steve Scherf et al.
# Submitted via: CDex 1.70beta2
#
DISCID=8908f30b
DTITLE=Downchild Blues band - Dancing
DYEAR=1900
DGENRE=Blues
TTITLE0=Going Dancing
TTITLE1=Tell your Mother
TTITLE2=When I Go To Work
TTITLE3=Please Forgive
TTITLE4=Set a Date
TTITLE5=Tell Me Baby
TTITLE6=Must Have Been The Devil
TTITLE7=Let's Go Strollin'
TTITLE8=Something On Your Mind
TTITLE9=The Argument
TTITLE10=Madison Blues
EXTD=
EXTT0=
EXTT1=
EXTT2=
EXTT3=
EXTT4=
EXTT5=
EXTT6=
EXTT7=
EXTT8=
EXTT9=
EXTT10=
PLAYORDER=
